<svg width="29" height="17" viewBox="0 0 29 17" fill="none" xmlns="http://www.w3.org/2000/svg">
<rect width="29" height="17" rx="2" fill="#556B2F"/>
<path d="M9.96484 4.17578V4.94922H6.08594V6.25H9.76562V7.01172H6.08594V8.39453C8.11328 8.40625 9.2793 8.36523 10.6445 8.10156L10.75 8.85156C9.30859 9.10938 8.11328 9.14453 5.95703 9.13281H5.17188V4.17578H9.96484ZM12.8242 10.2109V13.8086H6.25V10.2109H12.8242ZM7.15234 10.9492V13.0586H11.9102V10.9492H7.15234ZM12.8242 3.53125V6.12109H14.3945V6.90625H12.8242V9.67188H11.9102V3.53125H12.8242ZM23.6875 3.53125V9.84766H22.7617V7.46875H20.9922V6.70703H22.7617V3.53125H23.6875ZM23.6875 10.4102V13.8086H16.8789V10.4102H23.6875ZM17.793 11.1484V13.0586H22.7852V11.1484H17.793ZM21.1445 4.63281V5.38281H15.0625V4.63281H17.6523V3.4375H18.5547V4.63281H21.1445ZM18.0977 5.92188C19.5156 5.92188 20.5117 6.68359 20.5234 7.77344C20.5117 8.89844 19.5156 9.63672 18.0977 9.63672C16.6797 9.63672 15.6836 8.89844 15.6836 7.77344C15.6836 6.68359 16.6797 5.92188 18.0977 5.92188ZM18.0977 6.63672C17.1953 6.63672 16.5625 7.10547 16.5625 7.77344C16.5625 8.46484 17.1953 8.92188 18.0977 8.93359C19 8.92188 19.6328 8.46484 19.6328 7.77344C19.6328 7.10547 19 6.63672 18.0977 6.63672Z" fill="white"/>
</svg>
