<svg width="190" height="166" viewBox="0 0 190 166" fill="none" xmlns="http://www.w3.org/2000/svg">
<path d="M170.246 165.654L48.001 144.315L55.9108 99.0006L178.155 120.339L170.246 165.654Z" fill="#090909"/>
<path d="M151.379 153.585C147.243 152.864 143.333 150.852 141.464 148.571L143.84 145.037C145.667 147.115 148.831 148.919 152.094 149.488C156.229 150.21 158.233 149.035 158.577 147.062C159.577 141.334 143.139 142.335 144.861 132.471C145.609 128.184 149.659 125.138 156.943 126.409C160.13 126.965 163.323 128.383 165.372 130.304L163.148 133.865C161.003 132.044 158.504 130.904 156.19 130.5C152.093 129.785 150.146 131.087 149.795 133.097C148.808 138.75 165.194 137.818 163.493 147.568C162.751 151.817 158.663 154.857 151.379 153.585Z" fill="white"/>
<path d="M145.174 124.745L131.779 140.117L130.143 149.488L125.211 148.627L126.834 139.332L119.414 120.249L124.687 121.17L130.207 135.464L140.318 123.898L145.174 124.745Z" fill="white"/>
<path d="M100.239 144.659C92.0062 143.222 86.9493 136.358 88.3201 128.504C89.6909 120.651 96.7742 115.906 105.007 117.343C113.239 118.78 118.303 125.606 116.925 133.497C115.548 141.389 108.471 146.096 100.239 144.659Z" fill="white"/>
<path d="M104.343 121.494C107.271 122.005 109.23 124.793 108.719 127.721C108.317 130.022 106.51 131.723 104.333 132.099L105.562 141.608L96.3799 140.005L100.758 131.475C98.8376 130.384 97.7141 128.17 98.1156 125.87C98.6267 122.942 101.415 120.983 104.343 121.494Z" fill="#090909"/>
<path d="M80.2651 126.551C82.9515 127.958 84.4956 130.535 83.893 133.987C83.0983 138.539 79.0686 140.573 72.2398 139.381L59.0373 137.076L63.6729 110.52L76.1165 112.692C82.4901 113.804 85.4344 117.094 84.6993 121.305C84.2225 124.036 82.5058 125.809 80.2651 126.551ZM74.9099 116.469L67.9293 115.25L66.6513 122.572L73.6318 123.791C77.0463 124.387 79.193 123.51 79.6168 121.082C80.0473 118.616 78.3243 117.065 74.9099 116.469ZM72.6117 135.458C76.3296 136.107 78.5456 135.282 79.0092 132.626C79.4728 129.971 77.6673 128.443 73.9494 127.795L65.9824 126.404L64.6447 134.067L72.6117 135.458Z" fill="white"/>
<g clip-path="url(#clip0_1409_83186)">
<path d="M105.407 58.482C105.591 58.4276 105.774 58.3756 105.955 58.3212C109.24 57.9121 110.519 59.4041 109.809 62.8185C109.652 63.8801 109.433 64.9394 109.356 66.0058C109.287 66.9847 109.042 67.5995 107.894 67.2732C105.988 67.5711 104.195 67.4009 102.587 66.1902C101.903 65.6748 101.094 67.0013 100.374 66.1288C99.6739 65.7575 99.1404 65.2161 98.7545 64.5304C98.9117 62.1162 96.1702 61.3052 95.7343 59.1582C95.6223 58.6096 94.8149 59.3686 94.3075 59.2764C92.3544 57.983 90.899 56.0796 88.8839 54.8595C88.2337 53.8168 87.3119 53.0223 86.3972 52.2255C85.6017 51.379 84.8037 50.5349 83.6985 50.0667C83.3937 49.8704 83.1745 49.6104 83.0745 49.2604C82.8935 48.2957 82.086 48.0498 81.3166 47.7589C80.9999 47.539 80.7879 47.2435 80.6592 46.8841C80.3472 46.047 80.6616 45.1627 80.4734 44.2571C80.0185 44.6969 79.6707 45.236 78.9633 45.0871C78.5656 44.9996 78.2702 44.7773 78.0653 44.4297C77.8915 44.1271 77.6723 43.5359 77.4985 43.5951C75.6811 44.2217 74.5354 42.985 73.2515 42.1574C72.7275 41.8193 72.3512 41.6396 72.2869 42.4908C71.7319 42.6753 71.4127 43.4201 70.6719 43.1647C69.9669 43.387 69.3047 43.7086 68.6616 44.0703C68.3353 44.2831 67.9971 44.4723 67.6303 44.6071C67.2444 44.7371 66.849 44.8057 66.4441 44.8388C65.3484 44.8837 64.2503 44.9097 63.1571 44.801C62.8855 44.7726 62.6187 44.7182 62.3544 44.652C61.4588 44.3233 60.5179 44.3281 59.5794 44.302C56.7093 44.0159 54.5012 42.5618 52.6767 40.4337C52.0526 39.469 51.2285 38.6911 50.3282 37.9865C50.1543 37.802 50.0447 37.5821 50.0042 37.3339C50.0114 36.7617 50.3329 36.3266 50.6902 35.875C50.028 35.83 49.5231 36.4448 48.8561 36.2556C47.7247 35.9057 47.1054 35.1325 46.9435 33.9834C47.3627 32.4157 47.2484 31.0798 45.3976 30.4934C44.6354 29.706 44.6235 28.7247 44.6449 27.7293C44.502 25.2465 44.4758 22.7614 44.5044 20.2787C44.502 18.9806 44.7521 17.7298 45.2261 16.5215C45.5787 15.6703 46.0526 14.864 46.2527 13.9513C46.4004 13.4429 46.6148 12.9724 47.0245 12.6154C47.4199 12.2867 47.87 12.0408 48.3202 11.7996C50.9355 10.2934 51.0689 10.3171 52.853 12.7407C53.2817 13.3224 53.689 13.9182 54.0534 14.5401C54.1678 14.7505 54.2392 14.9775 54.275 15.2163C54.0487 15.9753 53.8653 16.7462 53.8295 17.543C53.6223 18.6827 53.4627 19.8153 54.0225 20.91C54.5417 21.8487 54.8419 22.9175 55.6803 23.6647C59.589 26.9963 62.0376 26.826 66.7823 22.8749C67.6255 22.3382 68.059 21.4988 67.9899 20.5837C67.8994 19.3637 68.271 18.3611 69.3428 17.2924C68.4615 17.5288 68.0352 17.394 67.6207 17.1883C66.9181 16.7533 66.5632 16.0699 66.2892 15.3298C66.0987 14.4833 65.6247 13.5801 66.7085 12.9582C66.8943 12.7927 67.0038 12.561 67.1848 12.3907C66.93 12.4971 66.9276 12.8164 66.6942 12.9559C65.9343 13.1025 65.5961 12.5255 65.165 12.107C64.9721 10.4968 63.4643 9.26488 63.8097 7.50096C64.1313 7.0919 64.5671 7.12973 65.0935 7.22431C64.1455 6.87436 63.1666 6.7987 62.4592 6.09881C62.1614 5.80088 61.9947 5.44621 61.9637 5.02533C62.2234 3.10062 63.8859 3.85963 64.953 3.47894C65.2245 3.37963 65.4961 3.3749 65.77 3.46239C66.8681 3.62554 67.9756 3.70357 69.0737 3.87854C70.3075 3.43875 71.2841 4.08662 72.2845 4.62809C73.2063 5.19793 74.1281 5.76778 75.0499 6.33762C75.188 6.45112 75.3214 6.57171 75.4762 6.6592C76.6981 7.36145 76.9459 9.42566 78.9133 9.08754C81.1189 10.5654 81.1332 13.6581 83.3937 15.0957C84.3798 15.9872 84.213 17.4319 85.011 18.4131C85.3254 18.9451 85.3158 19.5836 85.5779 20.1321C85.9828 23.9366 85.0729 27.5567 84.0106 31.1554L84.0392 31.1129C83.2126 32.3022 84.5584 32.4748 84.9776 33.0778C85.2873 34.0661 86.8093 34.5958 86.0947 35.9719L86.1043 35.9625C85.1586 37.471 86.3329 37.8753 87.3714 38.3506C87.6954 38.5729 87.9455 38.8684 88.2122 39.1522C89.9582 41.0154 92.6211 42.3135 92.1757 45.5221C92.1352 45.768 92.059 46.0069 91.9637 46.2338C91.4397 47.1111 92.0376 47.4492 92.714 47.7448C93.0403 47.8937 93.35 48.0711 93.6644 48.2413C94.6648 48.9317 95.4318 48.1656 96.2702 47.8275C96.5393 47.8677 96.7537 47.9954 96.9157 48.2106C97.1944 49.4141 98.7259 50.3646 97.6684 51.8401C97.697 52.7528 98.0661 53.5047 98.764 54.0958C99.5048 54.0343 100.227 54.3583 100.974 54.2046C101.92 54.7059 103.187 54.6207 103.811 55.7179L103.773 56.2428C103.361 57.6733 102.818 59.196 105.398 58.4914L105.407 58.482Z" fill="black"/>
<path d="M83.8769 89.6218C79.5729 89.4704 78.1056 86.0088 76.1596 83.1028C74.5375 82.0577 73.9254 80.3978 73.4299 78.6694L73.4442 78.6907C71.7102 77.7662 71.8126 75.6594 70.636 74.3778L70.0238 73.231C69.2854 72.1268 68.2445 71.1976 68.0087 69.8025L67.8849 69.9231L68.0183 69.8143C66.4057 68.651 65.453 67.0999 65.2148 65.1279C65.2529 64.2459 66.5081 63.0069 64.4883 62.7256C64.3835 62.7114 64.2954 62.5766 64.3001 62.5435C64.6026 59.7487 61.7825 58.3441 61.3061 55.8709C60.9941 54.2512 59.21 54.6082 58.1715 53.9414C57.7213 53.653 56.8758 54.0313 56.3636 53.5773C54.9941 52.3643 53.7912 52.5771 52.5836 53.8256C52.2811 54.1377 51.7237 54.0739 51.2997 54.237C50.9186 54.3198 50.5375 54.3198 50.1588 54.2205C49.3251 54.0171 48.4796 54.1401 47.7245 54.4143C44.8305 55.4642 43.0679 52.894 40.6931 52.3052C40.2906 52.2059 40.0572 51.5415 40.181 51.123C40.574 49.7847 40.1453 48.8578 39.0258 48.094C38.447 47.6992 38.3803 47.0253 38.4732 46.3609C38.5804 45.5877 38.4899 44.9138 37.6943 44.5047C35.503 43.3721 34.9004 41.1471 34.4168 39.0924C34.0762 37.6453 33.4426 36.8414 32.216 36.281C31.7563 35.8672 31.5633 35.4109 31.9873 34.8576C32.1397 34.7228 32.1564 34.5738 32.0445 34.4083C32.1898 34.1979 32.3446 33.9969 32.5113 33.803C33.4331 32.7626 34.6646 32.1337 35.8055 31.3983C38.3232 29.7715 40.8384 30.3414 42.108 33.0393C42.744 34.3918 43.6467 35.451 44.5709 36.5434C44.7543 36.7161 44.9091 36.9099 45.0425 37.1204C45.4474 38.1702 46.0905 38.9931 47.2172 39.3501C49.5871 41.1731 51.8333 43.157 54.3795 44.7483C54.9107 45.4221 55.6324 45.7863 56.4518 45.992C57.5022 46.3159 58.5883 46.5122 59.6364 46.8409C59.8793 46.9 60.1175 46.9756 60.3557 47.056C61.2346 47.38 62.1517 47.335 63.0639 47.361C68.3089 47.5171 69.9619 48.9594 70.3764 54.1211C70.5407 56.183 72.5629 54.3623 72.9869 55.6013L72.9702 55.5777C73.1513 56.3816 73.1394 57.1832 73.0012 57.9918C72.9297 58.4151 72.744 58.7863 73.5705 58.7768C75.6356 58.7532 75.2974 60.1601 74.9282 61.4275C74.6757 62.2881 74.3494 63.1464 73.892 63.922C72.975 65.4826 73.7706 66.0311 75.2021 66.2534C76.343 66.4331 77.3887 66.147 78.3891 65.6292L78.3271 65.4471C78.925 65.2485 79.3228 65.5582 79.6824 65.9649C80.3613 67.0431 79.3204 68.5943 80.6566 69.4999C80.7186 69.7505 80.6733 69.9775 80.5089 70.1808C78.5868 71.5688 78.5844 71.9542 80.4994 73.3895C82.1167 73.1932 84.2962 71.5026 84.5748 74.8838C84.3367 75.2243 84.0985 75.5648 83.8579 75.9077C82.5669 76.4515 83.0076 77.4257 83.2457 78.3478C83.3887 80.2229 84.5939 79.0879 85.0441 78.7924C85.9659 78.1918 86.6995 77.9317 87.5332 78.7994C88.4764 79.2723 88.8646 79.958 88.4145 80.989C87.8142 82.3651 87.8309 83.928 87.133 85.2758C86.4589 86.5999 85.9421 87.9643 86.0087 89.4846C85.3466 90.2555 84.6177 90.0379 83.8793 89.6218H83.8769Z" fill="black"/>
<path d="M51.7839 1.4451C53.0201 2.45711 54.7542 2.69592 55.8046 3.9964C56.5692 5.46239 57.1575 7.09389 59.1083 7.43202C61.5283 9.60499 61.8165 12.7734 62.955 15.5446C63.4243 17.5379 63.0646 19.5595 63.1789 21.567C63.3457 23.0826 62.481 23.662 61.1329 23.6525C60.2587 23.6454 59.3607 23.7329 58.5033 23.435C58.3484 23.3522 58.1817 23.3144 58.0031 23.3238C57.4409 22.7209 57.6863 22.0943 57.9435 21.4677C58.7105 20.6212 58.3341 19.4791 58.6986 18.531C60.1372 16.961 60.1444 15.6723 57.9507 14.8187C57.7839 14.6296 57.6648 14.4144 57.5862 14.1732C57.7387 12.9271 57.7744 11.726 56.3476 11.1065C56.1523 10.9409 55.9975 10.747 55.8689 10.5295C55.5545 8.88146 54.5231 8.09644 52.8582 8.08698C52.1269 7.9262 51.4124 7.7063 50.6883 7.52423C50.2047 7.39891 49.7593 7.1932 49.3592 6.89764C48.6875 6.39164 47.9038 6.07952 47.163 5.69174C45.4243 5.32525 43.7164 4.39363 41.9086 5.4482C41.649 5.50495 41.3917 5.49313 41.1345 5.42928C40.1174 4.3156 40.4604 2.26795 41.8729 0.995845C42.5088 0.423636 43.2806 0.16827 44.1142 0.0453159C45.4004 0.213195 46.7462 -0.335369 47.98 0.381075C49.2448 0.73575 50.5096 1.09043 51.7744 1.4451H51.7839Z" fill="#020202"/>
<path d="M32.0352 23.3383C31.7446 24.4 32.7164 24.9532 33.0451 25.7643C33.5787 27.0742 35.8462 28.0342 33.0546 29.6988C30.5322 31.205 29.7104 29.966 28.7386 28.1619C28.6172 27.9349 28.3909 27.7623 28.2146 27.5637C28.0622 25.8163 26.2091 24.6861 26.4663 22.7897C25.7636 21.7091 26.5902 20.4252 25.9971 19.3305C26.0018 18.8907 26.0042 18.4532 26.009 18.0134C26.3758 16.8927 25.9208 15.6608 26.483 14.566C27.7287 11.2959 28.8815 7.9714 31.8232 5.71094C33.5358 6.24295 35.9987 6.02542 35.2174 9.05907C35.1316 9.5698 34.8935 10.0191 34.6362 10.4612C33.6311 12.7288 31.9399 14.722 31.8827 17.3632C31.5231 18.4603 31.5445 19.5551 31.9232 20.6451C32.0804 21.5389 32.4663 22.4232 32.0352 23.3407V23.3383Z" fill="#030303"/>
<path d="M32.4287 35.9951C33.9626 36.3096 35.1107 36.4136 35.0249 38.8065C34.9559 40.7667 36.0206 43.1596 38.4763 44.0675C38.6478 44.1314 38.8264 44.1739 39.0003 44.2259C38.1452 46.834 41.2869 48.1132 41.0773 50.4446C41.0368 50.9009 40.6319 51.8538 40.9201 51.7947C43.4759 51.2651 44.5239 55.1026 47.2774 53.8589C48.2635 53.412 49.3783 53.0668 50.2667 54.171C50.4263 54.372 50.3786 54.4997 50.1285 54.5564L49.8904 54.4832L49.6665 54.5943C47.6299 55.3013 45.4719 54.4477 43.4307 55.079L43.2282 54.9915L43.0448 55.1145C42.0396 54.9395 40.8153 55.2398 40.3532 53.8897C39.5839 52.3007 38.8169 50.7094 38.0476 49.1205C35.5942 45.6163 34.0793 41.6415 32.2881 37.804C32.0142 37.2176 31.9856 36.5673 32.4287 35.9975V35.9951Z" fill="#050505"/>
<path d="M51.3237 54.0833C52.9934 52.1586 54.7036 50.572 56.9426 53.4236C58.8457 52.0593 59.8866 54.9345 61.6635 54.3694C62.2899 54.1708 62.9354 54.5515 62.5114 55.223C60.6059 58.2425 63.2927 57.779 64.9434 58.5617C65.1696 59.0606 64.3646 59.5571 64.2478 60.2287C64.1002 61.0751 64.2907 62.028 64.9743 62.3543C66.8179 63.2363 66.8632 63.1417 65.5793 65.2012C64.1621 65.1114 64.3122 63.5059 63.3785 62.9502C62.9569 62.2503 62.8259 61.4156 62.3495 60.7418C61.9803 60.1554 61.6087 59.569 61.2395 58.9826C60.4868 58.1219 59.8866 57.0248 58.4551 57.221C56.7735 57.1359 56.2399 55.833 55.6373 54.6011C54.2677 53.8516 52.7028 54.7288 51.3213 54.0857L51.3237 54.0833Z" fill="#050505"/>
<path d="M34.803 9.18645C35.4937 6.60441 32.5307 7.11041 31.8232 5.71063C32.9237 3.93725 34.9269 3.28465 36.4465 2.03383C37.8923 0.70971 39.7431 0.610401 41.5461 0.373951C41.6986 0.487447 41.8296 0.466167 41.9368 0.31011C42.5084 -0.0374719 43.0682 -0.127323 43.5946 0.395232C41.9058 0.979263 41.6462 2.74555 40.6791 3.92543C40.0265 4.72227 41.4413 4.74828 41.439 5.3796C41.5319 5.61605 41.4842 5.82413 41.3151 6.01092C40.5386 6.52875 39.6025 6.71318 38.8093 7.20027C38.4044 7.4178 38.0019 7.64243 37.6255 7.90725C36.7061 8.38252 36.013 9.35433 34.8006 9.18881L34.803 9.18645Z" fill="#070707"/>
<path d="M62.9092 47.435C65.646 47.9552 68.3399 47.5485 71.0314 47.0566H71.0267C71.796 47.3758 72.4296 48.2625 71.9413 48.7047C69.8572 50.5892 71.8413 52.0741 72.2152 53.7103C72.4725 54.3417 72.7321 54.9706 72.9894 55.6019C72.5702 55.6209 72.0795 55.226 71.7508 55.7485C71.3601 56.3657 70.9433 56.8244 70.2716 56.1174C69.7547 55.5736 69.164 55.2733 69.5952 54.1076C70.4908 51.6887 68.0183 48.5912 65.4697 48.1443C63.7 47.8322 61.7849 48.6669 60.1533 47.4515C61.0704 47.0543 61.9874 47.0779 62.9092 47.4373V47.435Z" fill="#060606"/>
<path d="M75.0547 66.6601C72.5299 66.7642 71.52 66.0501 73.3421 63.6619C73.6994 63.1938 73.728 62.4939 74.0067 61.9524C74.4188 61.1508 75.0857 60.2831 74.5188 59.4626C73.728 58.3158 73.0587 60.2121 72.0273 59.699C72.3394 58.3442 72.6562 56.9609 72.973 55.5801C74.0496 57.2045 75.0476 58.888 76.229 60.432C77.146 61.6308 76.2433 62.0966 75.5692 62.728C74.7403 63.6856 74.8856 64.674 75.4811 65.6741C75.4882 66.0666 75.3644 66.4048 75.0547 66.6601Z" fill="#060606"/>
<path d="M78.2894 44.3539C77.2795 45.1366 76.2577 45.7324 75.1191 44.562C74.4212 43.5429 73.6661 42.5994 72.2918 42.4907C71.9536 41.9729 71.6153 41.455 71.2676 40.9207C71.9988 40.4879 72.4419 40.9325 72.8349 41.2233C74.1711 42.214 75.2787 43.375 77.3319 42.6278C78.4657 42.214 78.8634 43.2591 78.2918 44.3515L78.2894 44.3539Z" fill="#090909"/>
<path d="M94.3744 58.9758C96.0679 57.8763 96.025 57.8881 96.3966 59.5196C96.5062 60.002 96.9087 60.7681 97.2374 60.7988C100.231 61.0967 98.8095 63.0758 98.7594 64.53C97.6376 63.3052 96.5181 62.0804 95.3962 60.8555C95.2509 60.1225 93.948 60.0114 94.3744 58.971V58.9758Z" fill="#040404"/>
<path d="M94.3745 58.9753C94.7151 59.6042 95.0557 60.2308 95.3963 60.8598C93.7766 59.5002 92.157 58.143 90.5373 56.7834C89.7465 56.275 88.777 55.9251 88.6865 54.7783C88.7842 54.6837 88.8818 54.5868 88.9795 54.4922C91.4471 55.1921 92.7334 57.2965 94.3769 58.9776L94.3745 58.9753Z" fill="#0C0C0C"/>
<path d="M100.377 66.1309C103.116 64.9912 105.348 67.1594 107.897 67.2729C107.251 67.4432 106.606 67.6134 105.962 67.7837C104.445 68.0674 102.918 68.441 101.53 67.3699C101.146 66.9561 100.763 66.5447 100.379 66.1309H100.377Z" fill="#040404"/>
<path d="M83.3989 15.0887C81.9006 14.8641 80.6144 14.5709 81.0003 12.4877C81.148 11.6909 80.25 11.1187 79.5068 10.7687C78.6875 10.3833 78.4612 9.86787 78.9185 9.07812C79.0805 9.10886 79.2424 9.11832 79.4068 9.10886C80.3357 9.32403 80.7502 10.0334 81.0837 10.8255C81.691 12.334 83.1821 13.3697 83.4012 15.0863L83.3989 15.0887Z" fill="#070707"/>
<path d="M85.0041 20.0068C86.0355 22.1443 85.3042 24.4285 85.5519 26.6298C84.8779 28.0816 85.0637 29.8219 84.0156 31.1484C84.2967 27.429 85.4471 23.7877 85.0041 20.0068Z" fill="#0C0C0C"/>
<path d="M96.559 47.9456C97.0449 47.4751 97.2187 48.2624 97.6046 48.201C97.7523 48.3476 97.8976 48.4918 98.0453 48.6384C99.1028 49.6906 98.8503 50.7333 98.0191 51.7714C97.9047 51.7832 97.7904 51.8045 97.6784 51.8328C97.7856 50.4023 96.0802 49.4825 96.5613 47.9456H96.559Z" fill="#0C0C0C"/>
<path d="M100.941 54.5685C102.349 53.3909 103.438 53.651 104.221 55.2873C104.088 55.4291 103.955 55.571 103.821 55.7129C102.871 55.3085 101.592 55.7271 100.944 54.5708L100.941 54.5685Z" fill="#0B0B0B"/>
<path d="M78.9201 9.0804C76.6549 9.51784 76.0618 7.63806 75.0566 6.32812C76.7097 6.73955 77.9197 7.76338 78.9201 9.0804Z" fill="#070707"/>
<path d="M75.0527 65.559C75.7983 66.2825 76.5486 66.5805 77.3132 65.5826C77.6704 65.5992 78.0301 65.6158 78.3874 65.6299C77.5109 66.7247 76.5367 67.505 75.0527 66.6609C75.0527 66.292 75.0527 65.9255 75.0527 65.5566V65.559Z" fill="#0A0A0A"/>
<path d="M87.2234 53.4951C87.0376 53.1073 86.8518 52.7171 86.6661 52.3293C86.4922 52.2017 86.4398 52.0834 86.5065 51.9723C86.5708 51.8635 86.6351 51.8115 86.6994 51.8115C87.6498 52.5469 88.643 53.2444 88.9765 54.4952L88.8646 54.5804C88.6621 54.8996 88.4739 54.8925 88.3 54.5567C87.9404 54.2044 87.5831 53.8521 87.2234 53.4974V53.4951Z" fill="#0C0C0C"/>
<path d="M86.0992 35.9664C86.485 34.7369 84.3437 34.6092 84.9177 33.2993C85.0225 33.2236 85.1274 33.1479 85.2322 33.0723C85.9658 33.181 86.2349 33.8218 86.6446 34.2994C86.5184 34.874 86.9662 35.633 86.0992 35.9688V35.9664Z" fill="#090909"/>
<path d="M84.9178 33.2974C84.0199 32.8055 82.0357 32.7417 84.0437 31.1055C84.2199 31.4365 84.3962 31.7675 84.5701 32.0986C84.7511 32.4249 85.2322 32.5833 85.1155 33.0751C85.0512 33.1508 84.9845 33.2241 84.9178 33.2974Z" fill="#0C0C0C"/>
<path d="M105.408 58.4816C104.817 59.0775 104.033 59.2785 103.526 58.6259C102.947 57.8858 102.954 56.9542 103.783 56.2354C103.898 57.2899 103.521 58.6944 105.408 58.484V58.4816Z" fill="#111111"/>
<path d="M86.9761 37.7068L87.1452 38.6904C85.9948 38.0804 84.7014 37.5247 86.1067 35.957C86.0234 36.7231 85.7137 37.598 86.9738 37.7068H86.9761Z" fill="#090909"/>
<path d="M83.3294 49.1161C83.146 49.1161 82.9626 49.1185 82.7792 49.1209C82.5934 48.9341 82.4052 48.7473 82.2194 48.5605C82.0265 48.1987 81.8336 47.8393 81.6406 47.4775C82.7292 47.4894 83.2913 48.0332 83.3294 49.1161Z" fill="#111111"/>
<path d="M68.9261 3.6231C69.0309 3.76261 69.119 3.91157 69.1929 4.06763C68.0043 4.05344 66.749 4.56654 65.6748 3.63493C66.5942 3.60655 67.5136 3.57818 68.433 3.5498C68.5807 3.68695 68.7451 3.71059 68.9261 3.62074V3.6231Z" fill="#0A0A0A"/>
<path d="M70.6124 43.562C69.8835 43.6045 69.1546 43.6447 68.4258 43.6873C69.0617 43.0299 69.7358 42.531 70.6743 43.1671C70.6671 43.3019 70.6481 43.4319 70.6124 43.562Z" fill="#090909"/>
<path d="M48.3676 12.3004C50.3398 9.18162 50.3946 9.18872 53.522 12.9388C53.7031 13.6671 53.8841 14.393 54.0651 15.1213C53.3053 14.8351 53.0314 14.1305 52.6765 13.5039C51.638 11.6667 50.3779 10.6736 48.3652 12.3004H48.3676Z" fill="#0B0B0B"/>
<path d="M67.1489 23.2717C67.9921 21.1814 68.2588 19.0463 67.6252 16.8473C68.1659 17.5827 69.0758 16.041 69.5546 17.1547C69.9381 18.0437 69.8595 18.5261 68.7233 18.8666C68.0635 19.0652 68.9377 19.985 68.7971 20.5099C68.5185 21.5598 68.6423 22.9193 67.1465 23.2693L67.1489 23.2717Z" fill="#070707"/>
<path d="M87.748 39.2041C88.0648 39.2679 88.3816 39.3318 88.6984 39.3956C89.4273 40.1735 90.0752 41.0508 90.8993 41.7105C92.4285 42.9353 92.6357 44.2901 91.6496 45.9051C92.3046 42.5475 88.9723 41.4811 87.7504 39.2041H87.748Z" fill="#131313"/>
<path d="M81.1188 46.929C80.378 46.196 79.6373 45.463 78.8965 44.73C79.3419 44.6519 79.8921 44.5928 79.8469 44.0159C79.7873 43.2805 80.0112 42.9779 80.7234 43.2214C81.1783 43.3751 81.4022 43.7227 81.3355 44.2642C81.226 45.1485 81.1879 46.0399 81.1188 46.9313V46.929Z" fill="#090909"/>
<path d="M44.7831 20.0796C44.9213 20.0229 45.0547 19.959 45.1857 19.8857C45.1928 22.5032 45.2 25.1231 45.2071 27.7406C44.14 25.2366 44.8117 22.6404 44.7831 20.0796Z" fill="#0C0C0C"/>
<path d="M50.2497 37.5415C49.6018 37.2152 49.1493 36.7234 48.9277 36.0282C49.1659 35.9005 49.4375 35.8154 49.6328 35.6404C50.3045 35.0446 51.262 34.7419 51.7312 35.4347C52.372 36.3781 50.6403 36.0258 50.6046 36.825C50.5951 37.0686 50.3735 37.3027 50.2497 37.5415Z" fill="#0A0A0A"/>
<path d="M47.4347 33.8151C46.5272 32.8764 46.1937 31.6728 45.877 30.4622C48.9663 30.4007 47.1298 32.5997 47.4347 33.8151Z" fill="#0A0A0A"/>
<path d="M61.2734 3.64839C62.5548 3.64366 63.8363 3.63656 65.1178 3.63184C64.4651 4.67222 62.4 3.48051 62.2976 5.39339C61.6831 4.97014 60.9899 4.59182 61.2734 3.64839Z" fill="#0A0A0A"/>
<path d="M86.6994 51.8087C86.6803 51.9813 86.6684 52.1539 86.666 52.3289C85.7347 51.4398 84.8034 50.5531 83.8721 49.6641C85.3203 49.7208 85.8991 50.9102 86.6994 51.811V51.8087Z" fill="#111111"/>
<path d="M93.2715 48.6668C94.1909 48.4659 95.1079 48.2625 96.0273 48.0615C95.5772 50.3645 94.3362 49.1232 93.2715 48.6668Z" fill="#0C0C0C"/>
<path d="M66.7557 15.1591C65.4314 14.4214 65.5933 13.102 65.46 11.8984C65.8982 12.2389 66.3365 12.5794 66.7724 12.9199C66.2198 13.6624 66.801 14.4119 66.7557 15.1591Z" fill="#070707"/>
<path d="M52.9225 39.9348C51.7578 39.4572 50.8932 38.6485 50.2715 37.5703C51.6339 37.828 52.4247 38.7195 52.9225 39.9348Z" fill="#0A0A0A"/>
<path d="M63.8865 7.47674C63.4863 6.94237 63.0838 6.41035 62.6836 5.87598C63.5578 6.24484 64.4319 6.6137 66.0183 7.28522C64.7582 7.39871 64.3223 7.43655 63.8865 7.47674Z" fill="#0A0A0A"/>
<path d="M91.595 46.3682C91.9309 46.9238 92.2643 47.4795 92.6002 48.0351C91.5188 48.7067 91.4283 47.5764 91.0567 47.1248C90.5541 46.5124 91.1258 46.4273 91.595 46.3682Z" fill="#0C0C0C"/>
<path d="M53.6177 20.5977C53.5629 20.7798 53.5081 20.9595 53.4533 21.1416C52.6316 19.8411 52.7626 18.5288 53.3985 17.207C53.5129 17.2969 53.6272 17.3867 53.7391 17.4766C53.7701 18.3349 53.9559 19.2003 53.5962 20.0373C53.6034 20.2241 53.6081 20.4109 53.6153 20.5977H53.6177Z" fill="#0B0B0B"/>
<path d="M66.7748 12.9228C66.9249 12.2489 67.0726 11.5774 67.3108 10.5039C68.1039 11.8682 67.6633 12.4593 66.7725 12.9228H66.7748Z" fill="#070707"/>
<path d="M54.07 15.1309C54.9966 15.8142 53.6127 16.4266 54.0081 17.0934C53.9819 17.3937 53.8342 17.4764 53.5627 17.3393L53.3983 17.2093C53.3364 16.4242 53.2411 15.6321 54.07 15.1332V15.1309Z" fill="#0B0B0B"/>
<path d="M83.7133 19.7604C83.5013 20.1293 83.4013 20.5596 83.1393 20.7039C82.7201 20.9356 82.47 20.5502 82.5414 20.186C82.6057 19.8645 82.882 19.5831 83.0631 19.2852C83.2608 19.4294 83.4561 19.5736 83.7133 19.7628V19.7604Z" fill="#060606"/>
<path d="M32.4448 34.2641C32.6806 32.3536 34.4956 32.0864 35.7175 31.2565C37.4444 30.0861 39.2975 29.0977 41.2935 27.9131C41.9223 31.3014 43.3943 34.1294 44.7806 36.9904C43.2062 36.3496 41.9771 35.4913 41.7056 33.5879C41.434 31.6774 38.4424 30.4549 36.8108 31.4717C35.3459 32.3867 33.8977 33.3302 32.4424 34.2618L32.4448 34.2641Z" fill="#070707"/>
<path d="M79.459 66.2679C79.6186 66.2608 79.7758 66.2702 79.9306 66.2986C80.3832 67.138 80.8143 67.9892 81.2907 68.8144C81.7504 69.6089 81.4217 69.9258 80.6309 70.0156C78.1466 69.4127 79.5257 67.6156 79.459 66.2679Z" fill="#0A0A0A"/>
<path d="M80.6495 70.0039C78.1795 71.1743 79.9564 72.8058 80.1826 74.2671C78.7059 73.8391 78.4224 72.5174 78.27 71.3422C78.0008 69.2733 79.9063 70.5643 80.6495 70.0039Z" fill="#0A0A0A"/>
<path d="M44.759 36.9648C45.4854 37.9012 46.2119 38.8399 46.936 39.7762C45.2687 39.5587 44.5922 38.5845 44.759 36.9648Z" fill="#070707"/>
<path d="M54.0869 45.2549C54.8682 45.4511 55.7257 45.5055 56.1353 46.3757C55.2183 46.4253 54.4466 46.2125 54.0869 45.2549Z" fill="#060606"/>
<path d="M59.1099 7.42976C56.0516 8.14384 55.6562 6.32554 55.8062 3.99414C57.1758 4.88556 58.6073 5.7155 59.1099 7.42976Z" fill="#040404"/>
<path d="M63.4148 21.5833C63.2743 21.6873 63.129 21.7866 62.9789 21.8765C62.9718 19.765 62.9622 17.6535 62.9551 15.542C63.8935 17.4974 63.2338 19.5711 63.4124 21.5809L63.4148 21.5833Z" fill="#0A0A0A"/>
<path d="M58.5915 17.3153C58.3867 16.3979 58.1795 15.4829 57.9746 14.5654C59.0798 14.6104 60.3255 14.6576 60.5971 15.9487C60.8257 17.0363 60.4494 18.1027 59.0965 18.4101C58.6296 18.1808 58.875 17.6275 58.5891 17.313L58.5915 17.3153Z" fill="#040404"/>
<path d="M56.1948 10.8463C55.08 9.72551 53.9653 8.6071 52.8506 7.48633C55.0967 7.49579 56.5735 8.25952 56.1948 10.8463Z" fill="#040404"/>
<path d="M57.8786 14.1707C57.5594 13.6954 57.2403 13.2201 56.9211 12.7449C56.6686 12.1017 56.4185 11.4586 56.166 10.8154C58.6956 10.9478 58.9052 12.2483 57.8786 14.1707Z" fill="#040404"/>
<path d="M47.4559 5.21384C45.6171 5.23039 43.7783 5.24694 41.9395 5.26349C42.0347 4.65818 42.1514 3.63198 42.8732 4.00558C44.3452 4.76931 46.1125 4.17818 47.4535 5.2162L47.4559 5.21384Z" fill="#070707"/>
<path d="M58.5914 17.3154C58.7605 17.6819 58.9272 18.0461 59.0964 18.4126C58.7677 19.4695 59.7061 20.8527 58.2627 21.6259C58.3723 20.1907 58.4818 18.753 58.589 17.3178L58.5914 17.3154Z" fill="#0B0B0B"/>
</g>
<path d="M190 96.6703L10.2784 119.215L13.3279 114.084L7.1581 111.165L13.4545 106.682L3.32295 101.622L8.77416 94.6068L3.57805 91.0378L7.21034 82.1406L3.1834 79.4801L6.75238 74.284L184.396 51.9996L190 96.6703Z" fill="#6EFF7F"/>
<path d="M178.94 81.5311L179.975 89.7835C179.251 90.2031 178.475 90.5693 177.648 90.8823C176.909 91.1842 176.076 91.453 175.149 91.6888C174.256 91.9503 173.288 92.1015 172.248 92.1425C170.699 92.1873 169.423 92.0186 168.419 91.6366C167.444 91.2509 166.642 90.694 166.013 89.9661C165.413 89.2345 164.973 88.3484 164.693 87.3077C164.41 86.2376 164.187 85.0553 164.024 83.7608C163.888 82.4332 163.769 81.0136 163.669 79.5021C163.595 77.9575 163.469 76.3596 163.292 74.7084C163.211 74.0611 163.056 73.184 162.828 72.0771C162.628 70.9666 162.363 69.8045 162.032 68.591C161.726 67.3444 161.38 66.1327 160.993 64.956C160.603 63.7499 160.19 62.7258 159.756 61.8838L169.42 60.6714C169.152 61.6314 168.934 62.7496 168.765 64.0258C168.597 65.3021 168.472 66.5728 168.392 67.838C168.341 69.0994 168.327 70.2965 168.349 71.4293C168.368 72.5326 168.418 73.4079 168.5 74.0551C168.828 76.6735 169.233 78.834 169.716 80.5366C170.199 82.2392 170.841 83.4287 171.643 84.105C172.445 84.7814 173.434 84.9262 174.611 84.5395C175.784 84.1234 177.227 83.1206 178.94 81.5311Z" fill="black"/>
<path d="M163.745 85.9033C163.874 86.6939 163.902 87.5122 163.828 88.3581C163.785 89.2003 163.629 89.9819 163.36 90.7029C163.092 91.4238 162.694 92.0566 162.164 92.6011C161.664 93.142 161.021 93.4916 160.234 93.6501C158.984 93.9265 157.93 93.984 157.073 93.8225C156.216 93.6611 155.517 93.3304 154.976 92.8305C154.461 92.2974 154.076 91.6135 153.822 90.7788C153.568 89.944 153.404 88.9934 153.33 87.9269C152.602 87.5999 151.783 87.5083 150.875 87.6521C149.996 87.7923 149.244 88.1107 148.619 88.6075C148.895 89.6188 149.185 90.6135 149.487 91.5916C149.789 92.5698 150.131 93.513 150.514 94.4212L143.894 95.2516C144.103 93.8208 144.18 92.2872 144.124 90.6506C144.098 89.0104 144.005 87.3186 143.846 85.5755C143.717 83.8286 143.558 82.0854 143.369 80.3459C143.181 78.6064 143.029 76.9221 142.915 75.2929C142.829 73.66 142.816 72.1227 142.874 70.681C142.932 69.2393 143.147 67.9723 143.518 66.8798C143.889 65.7874 144.435 64.8971 145.155 64.2091C145.872 63.4916 146.848 63.0553 148.084 62.9003C149.584 62.7121 150.873 62.9837 151.951 63.7151C153.029 64.4465 153.936 65.4832 154.672 66.8253C155.434 68.1342 156.056 69.64 156.539 71.3426C157.051 73.0415 157.478 74.7808 157.821 76.5607C158.16 78.3112 158.448 80.0083 158.684 81.6522C158.949 83.2923 159.215 84.6934 159.48 85.8555C159.657 86.5505 159.885 87.0598 160.165 87.3833C160.47 87.6737 160.772 87.8152 161.07 87.8077C161.364 87.7708 161.597 87.607 161.77 87.3164C161.943 87.0258 161.998 86.6304 161.935 86.1302L163.745 85.9033ZM147.829 84.8069C148.631 85.2442 149.521 85.4314 150.499 85.3684C151.477 85.3055 152.317 84.976 153.02 84.3799C152.997 83.9643 152.918 83.3317 152.782 82.4822C152.675 81.6291 152.527 80.6913 152.339 79.669C152.18 78.643 151.974 77.593 151.72 76.5193C151.466 75.4455 151.18 74.4802 150.863 73.6234C150.543 72.7372 150.186 72.0349 149.792 71.5165C149.424 70.965 149.018 70.7023 148.573 70.7282C148.131 70.7836 147.78 71.2011 147.52 71.9809C147.288 72.757 147.134 73.7924 147.058 75.087C147.01 76.3779 147.048 77.8674 147.17 79.5554C147.292 81.2434 147.512 82.9939 147.829 84.8069Z" fill="black"/>
<path d="M140.137 76.1343C139.339 75.7264 138.622 75.3682 137.985 75.0595C137.345 74.7215 136.727 74.4404 136.131 74.2163C135.532 73.9628 134.925 73.77 134.311 73.6378C133.722 73.4726 133.053 73.3773 132.302 73.3519C132.281 75.0878 132.354 76.9763 132.52 79.0173C132.716 81.0547 133.016 83.0939 133.422 85.1349C133.827 87.1758 134.343 89.1432 134.969 91.0369C135.595 92.9307 136.33 94.6166 137.172 96.0947L127.375 97.3237C127.827 95.6832 128.124 93.8828 128.267 91.9225C128.406 89.9328 128.419 87.899 128.308 85.8211C128.197 83.7433 127.97 81.6949 127.627 79.6759C127.314 77.6533 126.932 75.8036 126.483 74.1267C125.85 74.3256 125.269 74.5778 124.74 74.8833C124.236 75.1556 123.71 75.4905 123.162 75.888C122.64 76.2523 122.082 76.681 121.486 77.1741C120.916 77.6341 120.264 78.1492 119.528 78.7196L118.072 67.1133L138.681 64.528L140.137 76.1343Z" fill="black"/>
<path d="M109.861 80.425C109.222 81.7603 108.787 83.2941 108.556 85.0264C108.35 86.7256 108.342 88.445 108.53 90.1845C108.744 91.8909 109.161 93.542 109.779 95.1379C110.398 96.7337 111.211 98.096 112.219 99.2246L104.894 100.144L103.72 90.7879L103.235 90.8488C103.32 92.2426 103.32 93.5574 103.236 94.7932C103.152 96.0289 102.93 97.1176 102.57 98.0593C102.21 99.001 101.679 99.7698 100.977 100.366C100.304 100.958 99.4089 101.325 98.291 101.465C96.2904 101.716 94.5249 101.34 92.9945 100.336C91.4899 99.2999 90.226 97.9194 89.2028 96.195C88.2054 94.4375 87.4487 92.4555 86.9329 90.2491C86.417 88.0427 86.1733 85.8619 86.2018 83.7067C86.219 80.9852 86.5785 78.7287 87.2801 76.9374C87.9818 75.146 88.8344 73.7242 89.838 72.6719C90.8673 71.5865 91.9794 70.8045 93.1745 70.3259C94.3659 69.8178 95.4617 69.5011 96.462 69.3756C97.3446 69.2649 98.2658 69.224 99.2257 69.253C100.186 69.282 101.107 69.3607 101.99 69.489C102.869 69.5879 103.645 69.6998 104.318 69.8245C104.991 69.9493 105.469 70.0686 105.752 70.1825L104.902 80.5541C104.526 80.1828 104.004 79.8299 103.335 79.4956C102.694 79.1575 101.972 78.8746 101.166 78.647C100.357 78.3899 99.5147 78.2266 98.6394 78.1571C97.7603 78.0582 96.9126 78.0898 96.0962 78.252C95.3093 78.4105 94.5867 78.7252 93.9286 79.1963C93.2668 79.6379 92.7485 80.2707 92.3738 81.0947C92.0027 81.9481 91.7769 82.8878 91.6965 83.9139C91.6417 84.907 91.7212 85.8981 91.935 86.8873C92.1487 87.8765 92.4912 88.8197 92.9623 89.7169C93.4297 90.5846 93.9854 91.3218 94.6293 91.9283C95.3026 92.5312 96.0585 92.9593 96.8972 93.2127C97.7321 93.4367 98.6221 93.3848 99.5671 93.057C100.314 92.814 100.904 92.3963 101.337 91.804C101.797 91.1786 102.115 90.4962 102.291 89.7569C102.463 88.9882 102.527 88.1883 102.483 87.3571C102.438 86.526 102.297 85.7519 102.057 85.0348C101.219 85.2595 100.305 85.5983 99.3158 86.0511C98.3561 86.5002 97.4535 87.1662 96.608 88.0493L95.8718 82.1799L109.861 80.425Z" fill="black"/>
<path d="M82.1749 71.6159C81.9474 72.8995 81.8708 74.3136 81.9451 75.8582C82.045 77.3697 82.202 78.8592 82.4159 80.3265C82.6262 81.7644 82.8529 83.0956 83.0962 84.3202C83.3689 85.5411 83.5605 86.4733 83.6712 87.1169C83.8261 88.1135 83.992 89.1983 84.1691 90.3715C84.3755 91.5409 84.5232 92.7177 84.6119 93.9019C84.7301 95.0824 84.7564 96.2445 84.6907 97.3884C84.6507 98.499 84.4636 99.5087 84.1293 100.417C83.7914 101.296 83.2878 102.047 82.6188 102.669C81.946 103.261 81.0506 103.627 79.9327 103.768C79.1089 103.871 78.3089 103.687 77.5327 103.217C76.7822 102.714 76.0519 102.013 75.3417 101.116C74.6572 100.186 74.0131 99.1013 73.4094 97.8622C72.8315 96.59 72.3031 95.2368 71.8244 93.8027C71.3457 92.3686 70.9368 90.8958 70.5978 89.3844C70.2588 87.873 69.9988 86.3965 69.818 84.9549L69.3767 85.0103C69.4803 86.5512 69.6374 88.1601 69.8477 89.8371C70.0875 91.5104 70.4008 93.1744 70.7877 94.8292C71.1746 96.484 71.6461 98.0983 72.2021 99.6722C72.7544 101.217 73.4134 102.658 74.1789 103.996L64.382 105.225C64.9663 104.166 65.35 102.818 65.5332 101.181C65.7127 99.515 65.756 97.7166 65.6632 95.7858C65.5704 93.8551 65.3489 91.8508 64.9986 89.773C64.6777 87.6916 64.276 85.68 63.7933 83.7384C63.3107 81.7967 62.773 80.0114 62.1801 78.3824C61.6167 76.7498 61.059 75.4003 60.5068 74.334L70.3038 73.105C70.3744 74.8593 70.5573 76.6742 70.8523 78.5497C71.1437 80.3958 71.4883 82.1904 71.8863 83.9334C72.3137 85.6728 72.7741 87.3184 73.2676 88.8702C73.7868 90.3889 74.2968 91.7145 74.7974 92.847C75.3275 93.9758 75.841 94.8527 76.3377 95.4777C76.8308 96.0733 77.2649 96.3177 77.64 96.2109C77.9268 96.1151 78.1252 95.7914 78.2353 95.2397C78.3417 94.6586 78.3745 93.9671 78.3337 93.1654C78.3186 92.3306 78.2521 91.4424 78.134 90.501C78.0453 89.5558 77.9198 88.6751 77.7577 87.8587C77.6655 87.3622 77.5052 86.5606 77.2767 85.4537C77.0739 84.3136 76.7938 83.0339 76.4365 81.6145C76.0791 80.195 75.6243 78.7131 75.0719 77.1687C74.5453 75.5912 73.9121 74.1167 73.1723 72.7452L82.1749 71.6159Z" fill="black"/>
<path d="M64.4936 98.3535C64.6226 99.1441 64.6506 99.9624 64.5774 100.808C64.5336 101.651 64.3777 102.432 64.1095 103.153C63.8414 103.874 63.4426 104.507 62.9132 105.051C62.4133 105.592 61.7699 105.942 60.9829 106.1C59.7326 106.377 58.6789 106.434 57.8219 106.273C56.965 106.111 56.266 105.781 55.7252 105.281C55.2101 104.748 54.8255 104.064 54.5713 103.229C54.3172 102.394 54.1531 101.444 54.0791 100.377C53.3508 100.05 52.5324 99.9585 51.6241 100.102C50.7452 100.242 49.9932 100.561 49.3682 101.058C49.6445 102.069 49.9336 103.064 50.2356 104.042C50.5376 105.02 50.8801 105.963 51.263 106.871L44.6434 107.702C44.8524 106.271 44.929 104.737 44.8731 103.101C44.8466 101.461 44.7539 99.7688 44.595 98.0257C44.4655 96.2788 44.3066 94.5356 44.1183 92.7961C43.93 91.0566 43.7785 89.3723 43.6637 87.7431C43.5784 86.1102 43.5649 84.5729 43.6231 83.1312C43.6813 81.6895 43.8959 80.4225 44.2669 79.33C44.6379 78.2376 45.1836 77.3473 45.9041 76.6593C46.621 75.9418 47.5972 75.5055 48.8329 75.3505C50.3333 75.1623 51.6225 75.4339 52.7004 76.1653C53.7783 76.8967 54.6853 77.9334 55.4214 79.2755C56.1833 80.5844 56.8055 82.0902 57.288 83.7928C57.8 85.4917 58.2274 87.231 58.5702 89.0109C58.9093 90.7614 59.1969 92.4585 59.433 94.1024C59.6985 95.7425 59.9639 97.1436 60.2292 98.3057C60.4061 99.0007 60.6343 99.51 60.9139 99.8335C61.2193 100.124 61.521 100.265 61.8189 100.258C62.1131 100.221 62.3465 100.057 62.5193 99.7666C62.692 99.476 62.747 99.0806 62.6842 98.5804L64.4936 98.3535ZM48.5777 97.2571C49.3796 97.6944 50.2697 97.8816 51.248 97.8186C52.2262 97.7557 53.0664 97.4262 53.7686 96.8301C53.7464 96.4145 53.667 95.7819 53.5306 94.9324C53.4236 94.0793 53.276 93.1415 53.088 92.1192C52.9294 91.0931 52.723 90.0432 52.4688 88.9695C52.2145 87.8957 51.9291 86.9304 51.6124 86.0736C51.2921 85.1874 50.935 84.4851 50.5413 83.9667C50.1733 83.4152 49.7668 83.1524 49.3218 83.1784C48.8805 83.2337 48.5294 83.6513 48.2687 84.4311C48.0373 85.2072 47.8833 86.2426 47.8066 87.5372C47.7594 88.8281 47.7968 90.3176 47.9189 92.0056C48.041 93.6936 48.2606 95.4441 48.5777 97.2571Z" fill="black"/>
<path d="M41.4848 98.0575C41.9342 99.7343 42.082 101.27 41.9281 102.664C41.7743 104.058 41.3868 105.257 40.7657 106.261C40.1409 107.236 39.2954 107.999 38.2291 108.551C37.1628 109.104 35.9272 109.378 34.5223 109.375C33.2093 109.39 32.1058 109.051 31.2119 108.356C30.3179 107.661 29.5488 106.772 28.9047 105.687C28.2901 104.599 27.7673 103.409 27.3365 102.118C26.935 100.824 26.5685 99.57 26.237 98.3565L25.7516 98.4174C26.0759 100.05 26.5291 101.876 27.1111 103.895C27.7224 105.91 28.5434 107.809 29.574 109.592L19.777 110.821C20.405 108.681 20.7404 106.233 20.7833 103.478C20.8557 100.72 20.7 97.9305 20.3163 95.1098C19.9583 92.256 19.3889 89.5035 18.608 86.8522C17.8566 84.1972 16.9545 81.8898 15.9019 79.93L25.6988 78.7011C25.1371 80.8932 24.8217 83.0246 24.7528 85.0952C24.6838 87.1658 24.6883 88.9881 24.7662 90.5622L25.2075 90.5068C25.1957 88.7452 25.2465 87.1251 25.3598 85.6466C25.4989 84.135 25.7374 82.8201 26.0753 81.7019C26.4425 80.5801 26.9276 79.6825 27.5305 79.0092C28.1591 78.3028 28.9569 77.874 29.9241 77.7228C32.2336 77.3135 34.1204 77.7044 35.5847 78.8953C37.0489 80.0863 37.9232 81.8144 38.2073 84.0798C38.4472 85.9921 38.1923 87.6527 37.4427 89.0616C36.6931 90.4705 35.364 91.5487 33.4556 92.2961L33.511 92.7374C34.3384 92.6635 35.1696 92.7385 36.0046 92.9625C36.8652 93.1534 37.6524 93.473 38.3661 93.9214C39.1092 94.366 39.7494 94.9432 40.2866 95.6527C40.8496 96.3292 41.249 97.1308 41.4848 98.0575ZM29.2644 82.8259C28.7458 82.7416 28.2659 82.8466 27.8247 83.141C27.3835 83.4354 27.0159 83.9597 26.722 84.7137C26.4244 85.4384 26.2042 86.4223 26.0613 87.6654C25.9184 88.9085 25.8878 90.4514 25.9696 92.2939C26.2197 92.382 26.4974 92.4518 26.8027 92.5031C27.1337 92.5214 27.5198 92.5028 27.9611 92.4475C28.7555 92.3478 29.375 92.046 29.8198 91.5419C30.294 91.0342 30.6376 90.4383 30.8507 89.7541C31.0931 89.0663 31.2086 88.3196 31.1972 87.5142C31.2153 86.7051 31.1377 85.9677 30.9646 85.3021C30.8208 84.6329 30.5999 84.0629 30.3018 83.5923C30.0037 83.1217 29.6579 82.8662 29.2644 82.8259ZM31.9319 102.304C32.6968 102.208 33.3329 101.919 33.8402 101.437C34.3439 100.926 34.6893 100.344 34.8766 99.6933C35.0896 99.0091 35.1206 98.303 34.9695 97.5748C34.8478 96.843 34.5422 96.194 34.0529 95.6279C33.5635 95.0617 32.8829 94.6391 32.0112 94.36C31.1394 94.0808 30.0618 94.0666 28.7784 94.3172C27.8443 94.4942 27.0666 94.8457 26.4453 95.3719C26.5634 96.3134 26.7827 97.2272 27.103 98.1134C27.4197 98.9702 27.8135 99.7276 28.2846 100.386C28.785 101.04 29.3424 101.553 29.9568 101.924C30.5674 102.266 31.2258 102.392 31.9319 102.304Z" fill="black"/>
<g clip-path="url(#clip1_1409_83186)">
<mask id="mask0_1409_83186" style="mask-type:alpha" maskUnits="userSpaceOnUse" x="92" y="59" width="34" height="25">
<path d="M92 63L125.5 59.5L125 84H92V63Z" fill="#D9D9D9"/>
</mask>
<g mask="url(#mask0_1409_83186)">
<path d="M105.407 58.482C105.591 58.4276 105.774 58.3756 105.955 58.3212C109.24 57.9121 110.519 59.4041 109.809 62.8185C109.652 63.8801 109.433 64.9394 109.356 66.0058C109.287 66.9847 109.042 67.5995 107.894 67.2732C105.988 67.5711 104.195 67.4009 102.587 66.1902C101.903 65.6748 101.094 67.0013 100.374 66.1288C99.6739 65.7575 99.1404 65.2161 98.7545 64.5304C98.9117 62.1162 96.1702 61.3052 95.7343 59.1582C95.6223 58.6096 94.8149 59.3686 94.3075 59.2764C92.3544 57.983 90.899 56.0796 88.8839 54.8595C88.2337 53.8168 87.3119 53.0223 86.3972 52.2255C85.6017 51.379 84.8037 50.5349 83.6985 50.0667C83.3937 49.8704 83.1745 49.6104 83.0745 49.2604C82.8935 48.2957 82.086 48.0498 81.3166 47.7589C80.9999 47.539 80.7879 47.2435 80.6592 46.8841C80.3472 46.047 80.6616 45.1627 80.4734 44.2571C80.0185 44.6969 79.6707 45.236 78.9633 45.0871C78.5656 44.9996 78.2702 44.7773 78.0653 44.4297C77.8915 44.1271 77.6723 43.5359 77.4985 43.5951C75.6811 44.2217 74.5354 42.985 73.2515 42.1574C72.7275 41.8193 72.3512 41.6396 72.2869 42.4908C71.7319 42.6753 71.4127 43.4201 70.6719 43.1647C69.9669 43.387 69.3047 43.7086 68.6616 44.0703C68.3353 44.2831 67.9971 44.4723 67.6303 44.6071C67.2444 44.7371 66.849 44.8057 66.4441 44.8388C65.3484 44.8837 64.2503 44.9097 63.1571 44.801C62.8855 44.7726 62.6187 44.7182 62.3544 44.652C61.4588 44.3233 60.5179 44.3281 59.5794 44.302C56.7093 44.0159 54.5012 42.5618 52.6767 40.4337C52.0526 39.469 51.2285 38.6911 50.3282 37.9865C50.1543 37.802 50.0447 37.5821 50.0042 37.3339C50.0114 36.7617 50.3329 36.3266 50.6902 35.875C50.028 35.83 49.5231 36.4448 48.8561 36.2556C47.7247 35.9057 47.1054 35.1325 46.9435 33.9834C47.3627 32.4157 47.2484 31.0798 45.3976 30.4934C44.6354 29.706 44.6235 28.7247 44.6449 27.7293C44.502 25.2465 44.4758 22.7614 44.5044 20.2787C44.502 18.9806 44.7521 17.7298 45.2261 16.5215C45.5787 15.6703 46.0526 14.864 46.2527 13.9513C46.4004 13.4429 46.6148 12.9724 47.0245 12.6154C47.4199 12.2867 47.87 12.0408 48.3202 11.7996C50.9355 10.2934 51.0689 10.3171 52.853 12.7407C53.2817 13.3224 53.689 13.9182 54.0534 14.5401C54.1678 14.7505 54.2392 14.9775 54.275 15.2163C54.0487 15.9753 53.8653 16.7462 53.8295 17.543C53.6223 18.6827 53.4627 19.8153 54.0225 20.91C54.5417 21.8487 54.8419 22.9175 55.6803 23.6647C59.589 26.9963 62.0376 26.826 66.7823 22.8749C67.6255 22.3382 68.059 21.4988 67.9899 20.5837C67.8994 19.3637 68.271 18.3611 69.3428 17.2924C68.4615 17.5288 68.0352 17.394 67.6207 17.1883C66.9181 16.7533 66.5632 16.0699 66.2892 15.3298C66.0987 14.4833 65.6247 13.5801 66.7085 12.9582C66.8943 12.7927 67.0038 12.561 67.1848 12.3907C66.93 12.4971 66.9276 12.8164 66.6942 12.9559C65.9343 13.1025 65.5961 12.5255 65.165 12.107C64.9721 10.4968 63.4643 9.26488 63.8097 7.50096C64.1313 7.0919 64.5671 7.12973 65.0935 7.22431C64.1455 6.87436 63.1666 6.7987 62.4592 6.09881C62.1614 5.80088 61.9947 5.44621 61.9637 5.02533C62.2234 3.10062 63.8859 3.85963 64.953 3.47894C65.2245 3.37963 65.4961 3.3749 65.77 3.46239C66.8681 3.62554 67.9756 3.70357 69.0737 3.87854C70.3075 3.43875 71.2841 4.08662 72.2845 4.62809C73.2063 5.19793 74.1281 5.76778 75.0499 6.33762C75.188 6.45112 75.3214 6.57171 75.4762 6.6592C76.6981 7.36145 76.9459 9.42566 78.9133 9.08754C81.1189 10.5654 81.1332 13.6581 83.3937 15.0957C84.3798 15.9872 84.213 17.4319 85.011 18.4131C85.3254 18.9451 85.3158 19.5836 85.5779 20.1321C85.9828 23.9366 85.0729 27.5567 84.0106 31.1554L84.0392 31.1129C83.2126 32.3022 84.5584 32.4748 84.9776 33.0778C85.2873 34.0661 86.8093 34.5958 86.0947 35.9719L86.1043 35.9625C85.1586 37.471 86.3329 37.8753 87.3714 38.3506C87.6954 38.5729 87.9455 38.8684 88.2122 39.1522C89.9582 41.0154 92.6211 42.3135 92.1757 45.5221C92.1352 45.768 92.059 46.0069 91.9637 46.2338C91.4397 47.1111 92.0376 47.4492 92.714 47.7448C93.0403 47.8937 93.35 48.0711 93.6644 48.2413C94.6648 48.9317 95.4318 48.1656 96.2702 47.8275C96.5393 47.8677 96.7537 47.9954 96.9157 48.2106C97.1944 49.4141 98.7259 50.3646 97.6684 51.8401C97.697 52.7528 98.0661 53.5047 98.764 54.0958C99.5048 54.0343 100.227 54.3583 100.974 54.2046C101.92 54.7059 103.187 54.6207 103.811 55.7179L103.773 56.2428C103.361 57.6733 102.818 59.196 105.398 58.4914L105.407 58.482Z" fill="black"/>
<path d="M94.3744 58.9758C96.0679 57.8763 96.025 57.8881 96.3966 59.5196C96.5062 60.002 96.9087 60.7681 97.2374 60.7988C100.231 61.0967 98.8095 63.0758 98.7594 64.53C97.6376 63.3052 96.5181 62.0804 95.3962 60.8555C95.2509 60.1225 93.948 60.0114 94.3744 58.971V58.9758Z" fill="#040404"/>
<path d="M94.3745 58.9753C94.7151 59.6042 95.0557 60.2308 95.3963 60.8598C93.7766 59.5002 92.157 58.143 90.5373 56.7834C89.7465 56.275 88.777 55.9251 88.6865 54.7783C88.7842 54.6837 88.8818 54.5868 88.9795 54.4922C91.4471 55.1921 92.7334 57.2965 94.3769 58.9776L94.3745 58.9753Z" fill="#0C0C0C"/>
<path d="M100.377 66.1309C103.116 64.9912 105.348 67.1594 107.897 67.2729C107.251 67.4432 106.606 67.6134 105.962 67.7837C104.445 68.0674 102.918 68.441 101.53 67.3699C101.146 66.9561 100.763 66.5447 100.379 66.1309H100.377Z" fill="#040404"/>
</g>
</g>
<defs>
<clipPath id="clip0_1409_83186">
<rect width="84" height="90" fill="white" transform="translate(26)"/>
</clipPath>
<clipPath id="clip1_1409_83186">
<rect width="84" height="90" fill="white" transform="translate(26)"/>
</clipPath>
</defs>
</svg>
